<svg xmlns="http://www.w3.org/2000/svg" viewBox="0 0 500 500"><defs><style>.cls-1,.cls-16,.cls-17,.cls-18{fill:#e6e7e8;}.cls-1,.cls-2,.cls-3,.cls-4{stroke:#231f20;}.cls-1,.cls-16,.cls-17,.cls-18,.cls-2,.cls-3,.cls-4{stroke-miterlimit:10;}.cls-2{fill:#be1e2d;}.cls-16,.cls-17,.cls-18,.cls-2,.cls-3,.cls-4{stroke-width:2px;stroke-dasharray:5;}.cls-3{fill:#8dc63f;}.cls-4{fill:#fbb040;}.cls-13,.cls-5{fill:#231f20;}.cls-6{font-size:20.95px;fill:#fff;}.cls-13,.cls-20,.cls-22,.cls-6{font-family:MuseoSlab-500, Museo Slab;font-weight:500;}.cls-7{letter-spacing:0em;}.cls-8{letter-spacing:-0.01em;}.cls-9{letter-spacing:-0.01em;}.cls-10{letter-spacing:-0.01em;}.cls-11{letter-spacing:0em;}.cls-12{letter-spacing:0em;}.cls-13{font-size:25.01px;}.cls-14{letter-spacing:0em;}.cls-15{letter-spacing:-0.01em;}.cls-16,.cls-17,.cls-18{stroke:#ef4136;}.cls-16{opacity:0.87;}.cls-17{opacity:0.74;}.cls-18{opacity:0.63;}.cls-19,.cls-20,.cls-22,.cls-27{fill:#ed1c24;}.cls-19{opacity:0.1;}.cls-20{font-size:18px;}.cls-21{letter-spacing:-0.01em;}.cls-22{font-size:25.58px;}.cls-23{letter-spacing:-0.04em;}.cls-24{letter-spacing:-0.02em;}.cls-25{letter-spacing:-0.02em;}.cls-26{letter-spacing:0em;}.cls-28{letter-spacing:0em;}.cls-29{letter-spacing:-0.01em;}.cls-30{letter-spacing:0em;}.cls-31{letter-spacing:-0.01em;}.cls-32{letter-spacing:0em;}.cls-33{letter-spacing:0em;}.cls-34{letter-spacing:-0.01em;}</style></defs><title>cms-chart-3</title><g id="Layer_1" data-name="Layer 1"><rect class="cls-1" x="29.64" y="107.76" width="426.89" height="318.13" rx="12"/><rect class="cls-2" x="42.18" y="336.12" width="401.11" height="77.7" rx="7.62"/><rect class="cls-3" x="42.57" y="121.07" width="196.22" height="202.58" rx="7.94"/><rect class="cls-4" x="250.28" y="121.07" width="193.01" height="202.58" rx="7.18"/><path class="cls-5" d="M101.81,184.57c1.89,0,6,.69,6,3.12v1.91h-2.07v-1.22c0-1.38-2.39-1.9-3.83-1.9a5.73,5.73,0,0,0-5.84,6c0,3.71,2.54,6.36,6,6.36,1.11,0,3.92-.4,3.92-1.84v-1.23H108v1.92c0,2.31-3.94,3.09-6.12,3.09a8,8,0,0,1-8.13-8.21A7.87,7.87,0,0,1,101.81,184.57Z"/><path class="cls-5" d="M116.21,189a5.9,5.9,0,1,1-6.08,5.88A5.87,5.87,0,0,1,116.21,189Zm0,9.93a4,4,0,1,0-3.88-4A3.9,3.9,0,0,0,116.21,199Z"/><path class="cls-5" d="M124.15,198.88h1.76v-7.43a.43.43,0,0,0-.49-.49H124v-1.67h2.54c1,0,1.42.42,1.42,1.25v.57a3.08,3.08,0,0,1-.07.65h0a4.74,4.74,0,0,1,4.38-2.74c2.59,0,3.74,1.45,3.74,4.32v5.54h1.79v1.67H134v-6.72c0-1.58-.32-2.83-2.12-2.83-2.27,0-3.76,2.07-3.76,4.32v3.56h1.78v1.67h-5.7Z"/><path class="cls-5" d="M140.55,191h-1.89v-1.67h1.94v-3.1h2.11v3.1h2.7V191h-2.7v5.27c0,2.3,1.56,2.59,2.41,2.59a3.8,3.8,0,0,0,.51,0v1.81a6.74,6.74,0,0,1-.78,0c-1.43,0-4.3-.44-4.3-4.2Z"/><path class="cls-5" d="M152.82,189c3.2,0,4.87,2.36,4.87,5.28,0,.29-.06.82-.06.82h-8.24a3.78,3.78,0,0,0,3.89,3.83,5.52,5.52,0,0,0,3.37-1.27l.89,1.58a6.93,6.93,0,0,1-4.39,1.56,5.74,5.74,0,0,1-6-5.9A5.53,5.53,0,0,1,152.82,189Zm2.65,4.72c-.07-2-1.27-3-2.7-3a3.3,3.3,0,0,0-3.29,3Z"/><path class="cls-5" d="M159.69,198.88h1.76v-7.43A.43.43,0,0,0,161,191h-1.38v-1.67h2.54c1,0,1.42.42,1.42,1.25v.57a3.57,3.57,0,0,1-.06.65h0a4.74,4.74,0,0,1,4.39-2.74c2.58,0,3.74,1.45,3.74,4.32v5.54h1.78v1.67h-3.94v-6.72c0-1.58-.31-2.83-2.12-2.83-2.27,0-3.76,2.07-3.76,4.32v3.56h1.78v1.67h-5.7Z"/><path class="cls-5" d="M176.09,191H174.2v-1.67h1.94v-3.1h2.11v3.1H181V191h-2.7v5.27c0,2.3,1.56,2.59,2.41,2.59a3.8,3.8,0,0,0,.51,0v1.81a6.74,6.74,0,0,1-.78,0c-1.42,0-4.3-.44-4.3-4.2Z"/><path class="cls-5" d="M74.41,225.52h2V213.26h-2v-1.72H85.79v3.65H83.85v-1.82H78.6v5h5.56v1.83H78.6v5.18h5.63v-1.89h1.93v3.72H74.41Z"/><path class="cls-5" d="M88.12,225.59h1.69l2.69-4.14L90,217.67H88.19V216h3.16l2,3.27a7.91,7.91,0,0,1,.38.73h0a8,8,0,0,1,.4-.73l2-3.27h3v1.67H97.49L95,221.43l2.78,4.16h1.51v1.67H96.4l-2.27-3.65a6.47,6.47,0,0,1-.4-.71h0a5.26,5.26,0,0,1-.4.73l-2.22,3.63H88.12Z"/><path class="cls-5" d="M102.54,230V218.15a.43.43,0,0,0-.49-.48h-1.38V216h2.49c1,0,1.38.44,1.38,1.11v.09a5.24,5.24,0,0,1,0,.64h0a4.05,4.05,0,0,1,3.79-2.11c3,0,4.94,2.4,4.94,5.9s-2.16,5.9-5.1,5.9a4,4,0,0,1-3.49-1.92h-.05a6.28,6.28,0,0,1,.07,1V230h1.78v1.67h-5.7V230Zm5.3-4.38c1.78,0,3.25-1.45,3.25-4s-1.31-4-3.21-4c-1.67,0-3.22,1.18-3.22,4C104.66,223.68,105.75,225.66,107.84,225.66Z"/><path class="cls-5" d="M120.75,215.73c3.2,0,4.87,2.36,4.87,5.27,0,.29-.06.83-.06.83h-8.24a3.79,3.79,0,0,0,3.89,3.83,5.52,5.52,0,0,0,3.37-1.27l.89,1.58a6.93,6.93,0,0,1-4.39,1.56,5.74,5.74,0,0,1-6-5.9A5.52,5.52,0,0,1,120.75,215.73Zm2.65,4.72c-.07-2-1.27-3-2.7-3a3.31,3.31,0,0,0-3.29,3Z"/><path class="cls-5" d="M127.67,225.59h1.69v-7.44a.43.43,0,0,0-.49-.48h-1.4V216H130c1,0,1.45.4,1.45,1.31V218a7.19,7.19,0,0,1,0,.78h0a3.85,3.85,0,0,1,3.56-2.94,3.49,3.49,0,0,1,.56,0V218A3.17,3.17,0,0,0,135,218c-2.41,0-3.43,2.42-3.43,4.63v3h1.67v1.67h-5.52Z"/><path class="cls-5" d="M137,225.59h1.75v-7.92h-1.87V216h4v9.59h1.79v1.67H137Zm1.71-14.05H141v2.21h-2.27Z"/><path class="cls-5" d="M149.9,215.73c3.21,0,4.88,2.36,4.88,5.27,0,.29-.07.83-.07.83h-8.24a3.8,3.8,0,0,0,3.9,3.83,5.47,5.47,0,0,0,3.36-1.27l.89,1.58a6.9,6.9,0,0,1-4.39,1.56,5.74,5.74,0,0,1-6-5.9A5.52,5.52,0,0,1,149.9,215.73Zm2.65,4.72c-.07-2-1.27-3-2.69-3a3.32,3.32,0,0,0-3.3,3Z"/><path class="cls-5" d="M156.78,225.59h1.75v-7.44a.43.43,0,0,0-.49-.48h-1.37V216h2.53c1,0,1.43.42,1.43,1.24v.58a3.08,3.08,0,0,1-.07.65h.05a4.73,4.73,0,0,1,4.38-2.74c2.58,0,3.74,1.45,3.74,4.32v5.54h1.78v1.67h-3.94v-6.72c0-1.58-.31-2.83-2.11-2.83-2.27,0-3.77,2.07-3.77,4.32v3.56h1.79v1.67h-5.7Z"/><path class="cls-5" d="M177.9,215.73c1.67,0,4.41.62,4.41,2.56v1.38h-1.92v-.78c0-.87-1.42-1.29-2.42-1.29a3.71,3.71,0,0,0-3.83,4,3.83,3.83,0,0,0,4,4,5.78,5.78,0,0,0,3.61-1.45l.82,1.58a6.86,6.86,0,0,1-4.52,1.74,5.9,5.9,0,1,1-.11-11.8Z"/><path class="cls-5" d="M189.89,215.73c3.21,0,4.88,2.36,4.88,5.27,0,.29-.07.83-.07.83h-8.23a3.79,3.79,0,0,0,3.89,3.83,5.47,5.47,0,0,0,3.36-1.27l.89,1.58a6.89,6.89,0,0,1-4.38,1.56,5.74,5.74,0,0,1-6-5.9A5.52,5.52,0,0,1,189.89,215.73Zm2.65,4.72c-.06-2-1.27-3-2.69-3a3.33,3.33,0,0,0-3.3,3Z"/><path class="cls-5" d="M92.81,252.23h2V240h-2v-1.71h6.71a11.09,11.09,0,0,1,3.33.38c3,.93,5,3.65,5,7.48s-1.89,6.45-5,7.43a10.21,10.21,0,0,1-3.31.43H92.81Zm6.59-.09a7.27,7.27,0,0,0,2.68-.4c2.11-.73,3.42-2.76,3.42-5.63s-1.31-4.92-3.4-5.68a7.59,7.59,0,0,0-2.7-.35H97v12.06Z"/><path class="cls-5" d="M115.52,242.43c3.2,0,4.87,2.36,4.87,5.28,0,.29-.06.82-.06.82h-8.24a3.78,3.78,0,0,0,3.89,3.83,5.52,5.52,0,0,0,3.37-1.27l.89,1.59a7,7,0,0,1-4.39,1.55,5.74,5.74,0,0,1-6-5.9A5.53,5.53,0,0,1,115.52,242.43Zm2.65,4.72c-.07-2-1.27-3-2.7-3a3.3,3.3,0,0,0-3.29,3Z"/><path class="cls-5" d="M123.22,239.92h-1.87v-1.67h4v12.38c0,1,.22,1.6,1.2,1.6.35,0,.6,0,.6,0l0,1.78s-.45,0-1,0c-1.6,0-3-.64-3-3.27Z"/><path class="cls-5" d="M128.91,252.3h1.76v-7.93H128.8V242.7h4v9.6h1.78V254h-5.7Zm1.72-14.05h2.27v2.2h-2.27Z"/><path class="cls-5" d="M135.32,242.7h5.06v1.67h-1.45l2.38,6.57a5.5,5.5,0,0,1,.25,1.05h.06a5.5,5.5,0,0,1,.25-1.05l2.4-6.57h-1.45V242.7h5v1.67h-1.41L142.8,254h-2.42l-3.63-9.6h-1.43Z"/><path class="cls-5" d="M154.51,242.43c3.2,0,4.87,2.36,4.87,5.28,0,.29-.06.82-.06.82h-8.24a3.79,3.79,0,0,0,3.9,3.83,5.47,5.47,0,0,0,3.36-1.27l.89,1.59a6.92,6.92,0,0,1-4.39,1.55,5.73,5.73,0,0,1-6-5.9A5.52,5.52,0,0,1,154.51,242.43Zm2.65,4.72c-.07-2-1.27-3-2.7-3a3.31,3.31,0,0,0-3.29,3Z"/><path class="cls-5" d="M161.43,252.3h1.69v-7.44a.44.44,0,0,0-.49-.49h-1.4V242.7h2.54c1,0,1.44.4,1.44,1.32v.71a7.42,7.42,0,0,1,0,.78h0a3.85,3.85,0,0,1,3.56-2.94,4.33,4.33,0,0,1,.56,0v2.14a2.74,2.74,0,0,0-.62-.07c-2.41,0-3.43,2.43-3.43,4.63v3H167V254h-5.52Z"/><path class="cls-5" d="M172.76,256.84a2.32,2.32,0,0,0,2.07-1.56l.46-1.11-3.94-9.8h-1.42V242.7h5.14v1.67h-1.49l2.52,6.7a5.82,5.82,0,0,1,.2,1h.06a6.78,6.78,0,0,1,.27-1l2.49-6.7h-1.44V242.7h5v1.67h-1.4l-4.45,11.38a4.18,4.18,0,0,1-4,2.89,4.47,4.47,0,0,1-2.43-.71l.73-1.63A2.72,2.72,0,0,0,172.76,256.84Z"/><path class="cls-5" d="M309.81,173.15c1.89,0,6,.69,6,3.12v1.91h-2.07V177c0-1.38-2.39-1.89-3.83-1.89a5.72,5.72,0,0,0-5.84,6c0,3.72,2.54,6.37,6,6.37,1.11,0,3.92-.4,3.92-1.85v-1.23H316v1.92c0,2.31-3.94,3.09-6.12,3.09a8,8,0,0,1-8.13-8.21A7.87,7.87,0,0,1,309.81,173.15Z"/><path class="cls-5" d="M324.21,177.6a5.9,5.9,0,1,1-6.08,5.88A5.88,5.88,0,0,1,324.21,177.6Zm0,9.93a4,4,0,1,0-3.88-4.05A3.9,3.9,0,0,0,324.21,187.53Z"/><path class="cls-5" d="M332.15,187.47h1.76V180a.44.44,0,0,0-.49-.49H332v-1.67h2.54c1,0,1.42.42,1.42,1.25v.58a3,3,0,0,1-.07.64H336a4.73,4.73,0,0,1,4.38-2.74c2.59,0,3.74,1.45,3.74,4.32v5.55h1.79v1.67H342v-6.73c0-1.58-.32-2.82-2.12-2.82-2.27,0-3.76,2.07-3.76,4.31v3.57h1.78v1.67h-5.7Z"/><path class="cls-5" d="M348.55,179.54h-1.89v-1.67h1.94v-3.09h2.11v3.09h2.7v1.67h-2.7v5.28c0,2.29,1.56,2.58,2.41,2.58.31,0,.51,0,.51,0v1.8a5.41,5.41,0,0,1-.78,0c-1.43,0-4.3-.45-4.3-4.21Z"/><path class="cls-5" d="M360.82,177.6c3.2,0,4.87,2.36,4.87,5.28,0,.29-.07.82-.07.82h-8.23a3.78,3.78,0,0,0,3.89,3.83,5.52,5.52,0,0,0,3.37-1.27l.89,1.59a7,7,0,0,1-4.39,1.55,5.74,5.74,0,0,1-6-5.9A5.53,5.53,0,0,1,360.82,177.6Zm2.65,4.72c-.07-2-1.27-3-2.7-3a3.3,3.3,0,0,0-3.29,3Z"/><path class="cls-5" d="M367.69,187.47h1.76V180a.44.44,0,0,0-.49-.49h-1.38v-1.67h2.54c1,0,1.42.42,1.42,1.25v.58a3.53,3.53,0,0,1-.06.64h0a4.74,4.74,0,0,1,4.39-2.74c2.58,0,3.74,1.45,3.74,4.32v5.55h1.78v1.67h-3.94v-6.73c0-1.58-.31-2.82-2.12-2.82-2.27,0-3.76,2.07-3.76,4.31v3.57h1.78v1.67h-5.7Z"/><path class="cls-5" d="M384.09,179.54H382.2v-1.67h1.94v-3.09h2.11v3.09H389v1.67h-2.7v5.28c0,2.29,1.56,2.58,2.41,2.58.31,0,.51,0,.51,0v1.8a5.41,5.41,0,0,1-.78,0c-1.42,0-4.3-.45-4.3-4.21Z"/><path class="cls-5" d="M282.41,214.11h2V201.84h-2v-1.71h11.38v3.65h-1.94V202h-5.26V207h5.57v1.83h-5.57V214h5.64v-1.9h1.93v3.72H282.41Z"/><path class="cls-5" d="M296.12,214.17h1.69L300.5,210,298,206.25h-1.82v-1.67h3.16l2,3.27a7.91,7.91,0,0,1,.38.73h0s.18-.37.4-.73l2.05-3.27h3v1.67h-1.72L303,210l2.78,4.16h1.51v1.67H304.4l-2.27-3.65a6.47,6.47,0,0,1-.4-.71h-.05a4.69,4.69,0,0,1-.4.73l-2.22,3.63h-2.94Z"/><path class="cls-5" d="M310.54,218.63V206.74a.43.43,0,0,0-.49-.49h-1.38v-1.67h2.49c1,0,1.38.44,1.38,1.11v.09a5.3,5.3,0,0,1,0,.65h0a4.05,4.05,0,0,1,3.79-2.12c3,0,4.94,2.41,4.94,5.9s-2.16,5.9-5.1,5.9a4,4,0,0,1-3.49-1.91h-.05a6.22,6.22,0,0,1,.07,1v3.46h1.78v1.67h-5.7v-1.67Zm5.3-4.39c1.78,0,3.25-1.45,3.25-4s-1.31-4-3.21-4c-1.67,0-3.22,1.18-3.22,4.05C312.66,212.26,313.75,214.24,315.84,214.24Z"/><path class="cls-5" d="M328.75,204.31c3.2,0,4.87,2.36,4.87,5.28,0,.29-.07.82-.07.82h-8.23a3.79,3.79,0,0,0,3.89,3.83,5.52,5.52,0,0,0,3.37-1.27l.89,1.58a6.93,6.93,0,0,1-4.39,1.56,5.74,5.74,0,0,1-6-5.9A5.53,5.53,0,0,1,328.75,204.31ZM331.4,209c-.07-2-1.27-3-2.7-3a3.31,3.31,0,0,0-3.29,3Z"/><path class="cls-5" d="M335.67,214.17h1.69v-7.43a.43.43,0,0,0-.49-.49h-1.4v-1.67H338c1,0,1.45.4,1.45,1.31v.71a7.19,7.19,0,0,1,0,.78h0a3.86,3.86,0,0,1,3.56-2.94,3.49,3.49,0,0,1,.56.05v2.14a2.74,2.74,0,0,0-.62-.07c-2.41,0-3.43,2.43-3.43,4.63v3h1.67v1.67h-5.52Z"/><path class="cls-5" d="M345,214.17h1.75v-7.92h-1.87v-1.67h4v9.59h1.78v1.67H345Zm1.71-14H349v2.2h-2.27Z"/><path class="cls-5" d="M357.9,204.31c3.21,0,4.88,2.36,4.88,5.28,0,.29-.07.82-.07.82h-8.24a3.8,3.8,0,0,0,3.9,3.83,5.47,5.47,0,0,0,3.36-1.27l.89,1.58a6.9,6.9,0,0,1-4.39,1.56,5.74,5.74,0,0,1-6-5.9A5.53,5.53,0,0,1,357.9,204.31Zm2.65,4.72c-.07-2-1.27-3-2.69-3a3.32,3.32,0,0,0-3.3,3Z"/><path class="cls-5" d="M364.78,214.17h1.75v-7.43a.43.43,0,0,0-.49-.49h-1.38v-1.67h2.54c1,0,1.43.42,1.43,1.24v.58a3.08,3.08,0,0,1-.07.65h0a4.76,4.76,0,0,1,4.39-2.74c2.58,0,3.74,1.45,3.74,4.32v5.54h1.78v1.67h-3.94v-6.72c0-1.58-.31-2.83-2.11-2.83-2.27,0-3.77,2.07-3.77,4.32v3.56h1.78v1.67h-5.69Z"/><path class="cls-5" d="M385.9,204.31c1.67,0,4.41.62,4.41,2.56v1.38h-1.92v-.78c0-.87-1.42-1.29-2.43-1.29a3.71,3.71,0,0,0-3.82,4,3.83,3.83,0,0,0,4,4.05,5.78,5.78,0,0,0,3.61-1.45l.82,1.58a6.86,6.86,0,0,1-4.52,1.74,5.9,5.9,0,1,1-.11-11.8Z"/><path class="cls-5" d="M397.89,204.31c3.21,0,4.88,2.36,4.88,5.28,0,.29-.07.82-.07.82h-8.23a3.79,3.79,0,0,0,3.89,3.83,5.47,5.47,0,0,0,3.36-1.27l.89,1.58a6.89,6.89,0,0,1-4.38,1.56,5.74,5.74,0,0,1-6-5.9A5.53,5.53,0,0,1,397.89,204.31Zm2.65,4.72c-.06-2-1.27-3-2.69-3a3.33,3.33,0,0,0-3.3,3Z"/><path class="cls-5" d="M281.3,240.81h1.51l5-14h2.51l5,14h1.52v1.74H291.4v-1.74h1.67l-1.22-3.49h-5.57l-1.22,3.49h1.69v1.74H281.3Zm10-5.27-1.91-5.46a5.68,5.68,0,0,1-.27-1.2H289a7,7,0,0,1-.26,1.2l-1.94,5.46Z"/><path class="cls-5" d="M299.08,233h-1.89v-1.67h4.05v6.77c0,1.56.31,2.81,2.11,2.81,2.25,0,3.65-2.16,3.65-4.39V233h-1.89v-1.67h4.06v9.13a.44.44,0,0,0,.48.49h1.18v1.65H308.5c-1,0-1.43-.45-1.43-1.25v-.49a4.16,4.16,0,0,1,.05-.66h-.05a4.6,4.6,0,0,1-4.29,2.67c-2.43,0-3.7-1.34-3.7-4.32Z"/><path class="cls-5" d="M313.72,233h-1.89v-1.67h1.94v-3.09h2.11v3.09h2.7V233h-2.7v5.28c0,2.29,1.56,2.58,2.41,2.58.31,0,.51,0,.51,0v1.8a5.41,5.41,0,0,1-.78,0c-1.42,0-4.3-.45-4.3-4.21Z"/><path class="cls-5" d="M320.15,240.88h1.79V228.5H320v-1.67h4v5.83a7,7,0,0,1-.06.94h0a4.67,4.67,0,0,1,4.21-2.58c2.65,0,3.87,1.44,3.87,4.32v5.54h1.76v1.67H330v-6.72c0-1.58-.33-2.83-2.14-2.83-2.2,0-3.76,1.87-3.76,4.27v3.61h1.78v1.67h-5.7Z"/><path class="cls-5" d="M341.41,231a5.9,5.9,0,1,1-6.08,5.87A5.88,5.88,0,0,1,341.41,231Zm0,9.93a4,4,0,0,0,0-8.06,4,4,0,0,0,0,8.06Z"/><path class="cls-5" d="M349.4,240.88h1.69v-7.44a.44.44,0,0,0-.49-.49h-1.4v-1.67h2.54c1,0,1.44.41,1.44,1.32v.71a7.19,7.19,0,0,1,0,.78h0a3.86,3.86,0,0,1,3.57-2.94,3.44,3.44,0,0,1,.55,0v2.13a3.17,3.17,0,0,0-.62-.06c-2.41,0-3.43,2.42-3.43,4.63v3h1.67v1.67H349.4Z"/><path class="cls-5" d="M358.77,240.88h1.76V233h-1.87v-1.67h4v9.6h1.78v1.67h-5.7Zm1.71-14h2.27V229h-2.27Z"/><path class="cls-5" d="M366.25,240.88H368v-7.44a.43.43,0,0,0-.49-.49h-1.38v-1.67h2.54c1,0,1.43.43,1.43,1.25v.58a3.08,3.08,0,0,1-.07.65h0a4.74,4.74,0,0,1,4.39-2.74c2.58,0,3.74,1.44,3.74,4.32v5.54H380v1.67H376v-6.72c0-1.58-.31-2.83-2.11-2.83-2.27,0-3.77,2.07-3.77,4.32v3.56h1.78v1.67h-5.69Z"/><path class="cls-5" d="M386.3,245.4c2,0,3.56-.89,3.56-3.21v-.89a4.29,4.29,0,0,1,.07-.71h-.05a3.66,3.66,0,0,1-3.38,1.83c-3.12,0-5-2.52-5-5.77s1.8-5.63,4.94-5.63a3.9,3.9,0,0,1,3.65,1.85h.05a1.66,1.66,0,0,1-.05-.45c0-.71.36-1.14,1.29-1.14h2.41V233h-1.25a.44.44,0,0,0-.49.45v8.68c0,3.72-2.83,5.14-5.68,5.14a8.85,8.85,0,0,1-3.85-.93l.71-1.65A7.29,7.29,0,0,0,386.3,245.4Zm3.61-8.73c0-2.94-1.43-3.78-3.19-3.78-1.93,0-3.05,1.42-3.05,3.71s1.23,4,3.25,4C388.48,240.55,389.91,239.61,389.91,236.67Z"/><path class="cls-5" d="M406.6,226h1.91l-5.68,17.49h-1.91Z"/><path class="cls-5" d="M273.37,267.52h2l1-12.27h-2v-1.71h4.45l4,9.57a9.06,9.06,0,0,1,.36,1.14h0a11.68,11.68,0,0,1,.36-1.14l4-9.57h4.45v1.71h-2l1,12.27h2v1.74H287v-1.74h1.9l-.72-9.4a11,11,0,0,1,.07-1.29h-.07a10.15,10.15,0,0,1-.35,1.21l-3.61,8.25h-2l-3.6-8.25a11,11,0,0,1-.36-1.21h-.07a11,11,0,0,1,.07,1.29l-.71,9.4h1.89v1.74h-6.06Z"/><path class="cls-5" d="M301.15,262.33h.71v-.42a2.14,2.14,0,0,0-2.4-2.41,6,6,0,0,0-3.23,1.1l-.87-1.54a7.24,7.24,0,0,1,4.28-1.34c2.87,0,4.38,1.5,4.38,4.35v5a.44.44,0,0,0,.49.49h1.14v1.67H303.4c-1,0-1.4-.49-1.4-1.23v-.15a2.74,2.74,0,0,1,.09-.74h0a4.1,4.1,0,0,1-3.72,2.38c-1.87,0-3.74-1.09-3.74-3.4C294.58,262.58,299.28,262.33,301.15,262.33Zm-2.36,5.52c1.92,0,3.1-2,3.1-3.65v-.47h-.56c-1,0-4.57,0-4.57,2.21A1.9,1.9,0,0,0,298.79,267.85Z"/><path class="cls-5" d="M307.27,267.59H309v-7.44a.44.44,0,0,0-.49-.49h-1.38V258h2.54c1,0,1.42.42,1.42,1.25v.58a3,3,0,0,1-.07.64h.05a4.73,4.73,0,0,1,4.38-2.74c2.59,0,3.74,1.45,3.74,4.32v5.55H321v1.67h-3.94v-6.73c0-1.58-.31-2.82-2.11-2.82-2.27,0-3.76,2.07-3.76,4.31v3.57H313v1.67h-5.7Z"/><path class="cls-5" d="M328.84,262.33h.71v-.42a2.15,2.15,0,0,0-2.41-2.41,5.92,5.92,0,0,0-3.22,1.1l-.87-1.54a7.22,7.22,0,0,1,4.27-1.34c2.87,0,4.39,1.5,4.39,4.35v5a.44.44,0,0,0,.49.49h1.13v1.67h-2.25c-1,0-1.4-.49-1.4-1.23v-.15a2.74,2.74,0,0,1,.09-.74h0a4.1,4.1,0,0,1-3.72,2.38c-1.87,0-3.74-1.09-3.74-3.4C322.27,262.58,327,262.33,328.84,262.33Zm-2.36,5.52c1.91,0,3.09-2,3.09-3.65v-.47H329c-1,0-4.56,0-4.56,2.21A1.9,1.9,0,0,0,326.48,267.85Z"/><path class="cls-5" d="M339.67,272.11c2,0,3.57-.9,3.57-3.21V268a4.79,4.79,0,0,1,.06-.71h0a3.68,3.68,0,0,1-3.39,1.82c-3.11,0-5-2.51-5-5.76s1.81-5.64,5-5.64a3.94,3.94,0,0,1,3.65,1.85h0a1.89,1.89,0,0,1,0-.44c0-.72.35-1.14,1.29-1.14h2.4v1.67h-1.24a.44.44,0,0,0-.49.45v8.68c0,3.72-2.83,5.14-5.68,5.14a8.92,8.92,0,0,1-3.85-.93l.71-1.65A7.21,7.21,0,0,0,339.67,272.11Zm3.61-8.73c0-2.94-1.42-3.79-3.18-3.79-1.94,0-3.05,1.43-3.05,3.72s1.22,3.94,3.25,3.94C341.86,267.25,343.28,266.32,343.28,263.38Z"/><path class="cls-5" d="M354.36,257.72c3.21,0,4.88,2.36,4.88,5.28,0,.29-.07.82-.07.82h-8.23a3.78,3.78,0,0,0,3.89,3.83,5.47,5.47,0,0,0,3.36-1.27l.89,1.58a6.89,6.89,0,0,1-4.38,1.56,5.74,5.74,0,0,1-6-5.9A5.53,5.53,0,0,1,354.36,257.72Zm2.65,4.72c-.06-2-1.27-3-2.69-3a3.32,3.32,0,0,0-3.3,3Z"/><path class="cls-5" d="M361.24,267.59H363v-7.46a.43.43,0,0,0-.49-.47h-1.38V258h2.54c.95,0,1.42.42,1.42,1.25v.58a3,3,0,0,1-.07.64h.05a4.65,4.65,0,0,1,4-2.74,3,3,0,0,1,3.29,2.65h0a4.57,4.57,0,0,1,4-2.65c2.5,0,3.68,1.45,3.68,4.32v5.55h1.78v1.67H378v-6.75c0-1.58-.29-2.83-2-2.83-2.12,0-3.32,2.16-3.32,4.39v3.52h1.76v1.67H370.5v-6.75c0-1.47-.22-2.83-2-2.83-2.14,0-3.38,2.27-3.38,4.48v3.43h1.78v1.67h-5.7Z"/><path class="cls-5" d="M389,257.72c3.21,0,4.88,2.36,4.88,5.28,0,.29-.07.82-.07.82h-8.24a3.79,3.79,0,0,0,3.9,3.83,5.47,5.47,0,0,0,3.36-1.27l.89,1.58a6.9,6.9,0,0,1-4.39,1.56,5.73,5.73,0,0,1-6-5.9A5.52,5.52,0,0,1,389,257.72Zm2.65,4.72c-.07-2-1.27-3-2.69-3a3.31,3.31,0,0,0-3.3,3Z"/><path class="cls-5" d="M395.84,267.59h1.76v-7.44a.43.43,0,0,0-.49-.49h-1.38V258h2.54c1,0,1.43.42,1.43,1.25v.58a3,3,0,0,1-.07.64h0a4.76,4.76,0,0,1,4.39-2.74c2.58,0,3.74,1.45,3.74,4.32v5.55h1.78v1.67h-3.94v-6.73c0-1.58-.31-2.82-2.11-2.82-2.28,0-3.77,2.07-3.77,4.31v3.57h1.78v1.67h-5.7Z"/><path class="cls-5" d="M412.25,259.66h-1.89V258h1.93V254.9h2.12V258h2.69v1.67h-2.69v5.28c0,2.29,1.56,2.58,2.4,2.58.31,0,.51,0,.51,0v1.8a6.74,6.74,0,0,1-.78,0c-1.42,0-4.29-.44-4.29-4.2Z"/><text class="cls-6" transform="translate(94.19 380.15)">C<tspan class="cls-7" x="15.59" y="0">o</tspan><tspan class="cls-8" x="28.62" y="0">n</tspan><tspan x="42.91" y="0">te</tspan><tspan class="cls-9" x="62.08" y="0">n</tspan><tspan x="76.36" y="0">t </tspan><tspan class="cls-10" x="89.14" y="0">R</tspan><tspan x="103.62" y="0">epos</tspan><tspan class="cls-11" x="151.79" y="0">i</tspan><tspan x="158.72" y="0">t</tspan><tspan class="cls-12" x="166.26" y="0">o</tspan><tspan x="179.29" y="0">ry / St</tspan><tspan class="cls-12" x="239.52" y="0">o</tspan><tspan x="252.56" y="0">rage</tspan></text><text class="cls-13" transform="translate(56.23 86.51)">CMS / Exper<tspan class="cls-14" x="150.61" y="0">i</tspan><tspan x="158.92" y="0">ence Manageme</tspan><tspan class="cls-15" x="361.34" y="0">n</tspan><tspan x="378.4" y="0">t</tspan></text></g><g id="Layer_3" data-name="Layer 3"><rect class="cls-16" x="42.18" y="335.5" width="401.11" height="77.7" rx="7.62"/><rect class="cls-17" x="42.57" y="120.45" width="196.22" height="202.58" rx="7.94"/><rect class="cls-18" x="250.28" y="120.45" width="193.01" height="202.58" rx="7.18"/><circle class="cls-19" cx="100.84" cy="159.01" r="57.59"/><text class="cls-20" transform="translate(68.38 163.27)">G<tspan class="cls-21" x="13.79" y="0">a</tspan><tspan x="23.65" y="0">tsby</tspan></text><text class="cls-22" transform="translate(79.37 336.12)"><tspan class="cls-23">“</tspan><tspan class="cls-24" x="8.6" y="0">J</tspan><tspan x="22.25" y="0">AMStack”</tspan></text><circle class="cls-19" cx="218.57" cy="200.55" r="57.59"/><text class="cls-20" transform="translate(186.35 204.81)"><tspan class="cls-25">N</tspan><tspan x="14.72" y="0">etlify</tspan></text><circle class="cls-19" cx="92.79" cy="240.55" r="57.59"/><text class="cls-20" transform="translate(64.9 244.8)"><tspan class="cls-25">J</tspan><tspan class="cls-26" x="9.63" y="0">eky</tspan><tspan class="cls-21" x="40.81" y="0">l</tspan><tspan x="45.95" y="0">l</tspan></text><circle class="cls-19" cx="160.98" cy="266.83" r="57.59"/><path class="cls-27" d="M134.22,258.15c2.24,0,4.88.9,4.88,2.5v1.57h-1.65v-.94c0-1.06-1.68-1.58-3.17-1.58a4.61,4.61,0,0,0-4.85,4.93,4.76,4.76,0,0,0,4.9,5.1c1.14,0,3.4-.34,3.4-1.59v-1.67h-2.48v-1.4h4.14v3.56c0,2-3.28,2.67-5.18,2.67a6.42,6.42,0,0,1-6.65-6.61A6.34,6.34,0,0,1,134.22,258.15Z"/><path class="cls-27" d="M141.33,269.73h1.42v-6.41h-1.51V262h3.26v7.76h1.44v1.35h-4.61Zm1.39-11.36h1.83v1.78h-1.83Z"/><path class="cls-27" d="M148.28,263.32h-1.53V262h1.57v-2.5H150V262h2.18v1.35H150v4.27c0,1.85,1.26,2.08,1.94,2.08h.42v1.46a6.08,6.08,0,0,1-.63,0,3.14,3.14,0,0,1-3.48-3.4Z"/><path class="cls-27" d="M153.86,269.67h1.58v-9.92h-1.58v-1.38h5v1.38h-1.61V264h6.59v-4.24h-1.6v-1.38h5v1.38h-1.58v9.92h1.58v1.41h-5v-1.41h1.6v-4.21h-6.59v4.21h1.61v1.41h-5Z"/><path class="cls-27" d="M169.75,263.32h-1.53V262h3.28v5.47c0,1.26.25,2.27,1.71,2.27,1.82,0,2.95-1.75,2.95-3.55v-2.84h-1.53V262h3.28v7.38a.36.36,0,0,0,.4.4h.95v1.33h-1.89c-.79,0-1.15-.36-1.15-1v-.4a4.85,4.85,0,0,1,0-.54h0a3.73,3.73,0,0,1-3.48,2.17c-2,0-3-1.09-3-3.5Z"/><path class="cls-27" d="M181.29,259.72h-1.53v-1.35H183v4.21a4.72,4.72,0,0,1-.06.76h0a3.29,3.29,0,0,1,2.94-1.59c2.46,0,4,1.95,4,4.77s-1.75,4.78-4.16,4.78a3.17,3.17,0,0,1-2.88-1.66h0a4.35,4.35,0,0,1,.06.72v.72h-1.66Zm4.29,10.06c1.42,0,2.61-1.17,2.61-3.24s-1.06-3.26-2.58-3.26c-1.35,0-2.63,1-2.63,3.28C183,268.18,183.83,269.78,185.58,269.78Z"/><path class="cls-27" d="M133.89,291.28h1.58v-9.93h-1.58V280h5.92a5.29,5.29,0,0,1,2.18.34,4.09,4.09,0,0,1-.23,7.33,5.63,5.63,0,0,1-1.91.27h-2.58v3.37h1.61v1.4h-5Zm5.74-4.85a3.74,3.74,0,0,0,1.43-.25,2.3,2.3,0,0,0,1.27-2.27,2.28,2.28,0,0,0-1.13-2.16,3.27,3.27,0,0,0-1.55-.31h-2.38v5Z"/><path class="cls-27" d="M150.47,287.08H151v-.34a1.73,1.73,0,0,0-1.94-1.95,4.82,4.82,0,0,0-2.61.89l-.7-1.25a5.83,5.83,0,0,1,3.45-1.08c2.33,0,3.55,1.21,3.55,3.51v4.07a.36.36,0,0,0,.4.4h.92v1.35h-1.82c-.81,0-1.14-.4-1.14-1v-.13a2,2,0,0,1,.08-.59h0a3.31,3.31,0,0,1-3,1.93,2.77,2.77,0,0,1-3-2.76C145.16,287.28,149,287.08,150.47,287.08Zm-1.91,4.46c1.55,0,2.5-1.58,2.5-3v-.38h-.45c-.83,0-3.69,0-3.69,1.79A1.54,1.54,0,0,0,148.56,291.54Z"/><path class="cls-27" d="M159.23,295c1.59,0,2.88-.72,2.88-2.59v-.72a3.28,3.28,0,0,1,.06-.58h0a2.94,2.94,0,0,1-2.73,1.48c-2.52,0-4.07-2-4.07-4.66s1.46-4.56,4-4.56a3.18,3.18,0,0,1,3,1.5h0a1.77,1.77,0,0,1,0-.36c0-.58.28-.92,1-.92h2v1.35h-1c-.24,0-.4.12-.4.36v7c0,3-2.29,4.16-4.59,4.16a7.14,7.14,0,0,1-3.11-.76l.57-1.33A5.91,5.91,0,0,0,159.23,295Zm2.92-7.05c0-2.38-1.15-3.06-2.57-3.06-1.57,0-2.47,1.15-2.47,3s1,3.19,2.63,3.19C161,291.06,162.15,290.3,162.15,287.93Z"/><path class="cls-27" d="M171.11,283.35c2.6,0,3.95,1.91,3.95,4.27,0,.23-.06.67-.06.67h-6.66a3.07,3.07,0,0,0,3.15,3.09,4.43,4.43,0,0,0,2.72-1l.72,1.27a5.57,5.57,0,0,1-3.55,1.27,4.64,4.64,0,0,1-4.82-4.78A4.47,4.47,0,0,1,171.11,283.35Zm2.15,3.82a2.23,2.23,0,0,0-2.18-2.43,2.69,2.69,0,0,0-2.67,2.43Z"/><path class="cls-27" d="M176.53,289.74h1.53v.6c0,.77,1.08,1.13,2.09,1.13s1.84-.41,1.84-1.17c0-.92-1-1.2-2.27-1.65s-2.85-1.12-2.85-2.78,1.79-2.52,3.37-2.52c1.28,0,3.15.51,3.15,1.84v1.1h-1.53v-.6c0-.56-.72-.93-1.6-.93s-1.62.36-1.62,1.1,1,1.22,2.1,1.6c1.41.47,3,1.06,3,2.75s-1.58,2.69-3.65,2.69c-1.66,0-3.57-.74-3.57-2.18Z"/><circle class="cls-19" cx="308.6" cy="374.35" r="57.59"/><text class="cls-20" transform="translate(260.06 378.6)">c<tspan class="cls-28" x="9.95" y="0">o</tspan><tspan class="cls-29" x="21.15" y="0">n</tspan><tspan x="33.43" y="0">te</tspan><tspan class="cls-29" x="49.9" y="0">n</tspan><tspan class="cls-26" x="62.17" y="0">tf</tspan><tspan class="cls-21" x="75.4" y="0">u</tspan><tspan x="87.25" y="0">l</tspan></text><circle class="cls-19" cx="385.7" cy="336.12" r="57.59"/><text class="cls-20" transform="translate(330.77 340.37)"><tspan class="cls-28">g</tspan><tspan x="11.2" y="0">oo</tspan><tspan class="cls-30" x="33.73" y="0">gl</tspan><tspan x="50.13" y="0">edr</tspan><tspan class="cls-31" x="79.06" y="0">i</tspan><tspan class="cls-28" x="84.94" y="0">v</tspan><tspan class="cls-26" x="95.33" y="0">e</tspan></text><circle class="cls-19" cx="216.29" cy="385.44" r="57.59"/><text class="cls-20" transform="translate(184.73 389.69)">g<tspan class="cls-32" x="11.27" y="0">i</tspan><tspan class="cls-33" x="17.23" y="0">t</tspan><tspan class="cls-21" x="23.71" y="0">h</tspan><tspan class="cls-30" x="35.71" y="0">u</tspan><tspan x="47.61" y="0">b</tspan></text><circle class="cls-19" cx="116.01" cy="380.24" r="57.59"/><text class="cls-20" transform="translate(76.82 384.49)">d<tspan class="cls-32" x="11.32" y="0">r</tspan><tspan class="cls-30" x="18.85" y="0">o</tspan><tspan x="30.04" y="0">pb</tspan><tspan class="cls-34" x="52.47" y="0">o</tspan><tspan x="63.52" y="0">x</tspan></text></g></svg>