<?xml version="1.0" encoding="utf-8"?>
<!-- Generator: Adobe Illustrator 23.0.3, SVG Export Plug-In . SVG Version: 6.00 Build 0)  -->
<svg version="1.1" xmlns="http://www.w3.org/2000/svg" xmlns:xlink="http://www.w3.org/1999/xlink" x="0px" y="0px"
	 viewBox="0 0 500 500" style="enable-background:new 0 0 500 500;" xml:space="preserve">
<style type="text/css">
	.st0{fill:#E6E7E8;stroke:#000000;stroke-miterlimit:10;}
	.st1{fill:#BE1E2D;stroke:#000000;stroke-width:2;stroke-miterlimit:10;stroke-dasharray:5;}
	.st2{fill:#8DC63F;stroke:#000000;stroke-width:2;stroke-miterlimit:10;stroke-dasharray:5;}
	.st3{fill:#FBB040;stroke:#000000;stroke-width:2;stroke-miterlimit:10;stroke-dasharray:5;}
	.st4{font-family:'MuseoSlab-500';}
	.st5{font-size:22.2555px;}
	.st6{fill:#FFFFFF;}
	.st7{font-size:20.9505px;}
	.st8{font-size:25.0069px;}
	.st9{opacity:0.77;fill:#E6E7E8;stroke:#ED1C24;stroke-width:3;stroke-miterlimit:10;stroke-dasharray:5;}
	.st10{display:none;}
	.st11{display:inline;opacity:0.87;fill:#E6E7E8;stroke:#EF4136;stroke-width:2;stroke-miterlimit:10;stroke-dasharray:5;}
	.st12{display:inline;opacity:0.74;fill:#E6E7E8;stroke:#EF4136;stroke-width:2;stroke-miterlimit:10;stroke-dasharray:5;}
	.st13{display:inline;opacity:0.63;fill:#E6E7E8;stroke:#EF4136;stroke-width:2;stroke-miterlimit:10;stroke-dasharray:5;}
	.st14{display:inline;}
	.st15{opacity:0.1;fill:#ED1C24;}
	.st16{fill:#ED1C24;}
	.st17{font-size:18px;}
	.st18{display:inline;fill:#ED1C24;}
	.st19{font-size:25.5797px;}
</style>
<g id="Layer_1">
	<path class="st0" d="M444.53,425.89H41.64c-6.6,0-12-5.4-12-12V119.76c0-6.6,5.4-12,12-12h402.89c6.6,0,12,5.4,12,12v294.13
		C456.53,420.49,451.13,425.89,444.53,425.89z"/>
	<path class="st1" d="M435.67,413.82H49.8c-4.19,0-7.62-3.43-7.62-7.62v-62.45c0-4.19,3.43-7.62,7.62-7.62h385.86
		c4.19,0,7.62,3.43,7.62,7.62v62.45C443.29,410.39,439.86,413.82,435.67,413.82z"/>
	<path class="st2" d="M230.85,323.65H50.51c-4.37,0-7.94-3.57-7.94-7.94v-186.7c0-4.37,3.57-7.94,7.94-7.94h180.34
		c4.37,0,7.94,3.57,7.94,7.94v186.7C238.79,320.08,235.21,323.65,230.85,323.65z"/>
	<path class="st3" d="M436.11,323.65H257.46c-3.95,0-7.18-3.23-7.18-7.18V128.25c0-3.95,3.23-7.18,7.18-7.18h178.65
		c3.95,0,7.18,3.23,7.18,7.18v188.22C443.29,320.42,440.06,323.65,436.11,323.65z"/>
	<text transform="matrix(1 0 0 1 92.481 200.5537)"><tspan x="0" y="0" class="st4 st5">Content </tspan><tspan x="-19.3" y="26.71" class="st4 st5">Experience  </tspan><tspan x="-0.99" y="53.41" class="st4 st5">Delivery</tspan></text>
	<text transform="matrix(1 0 0 1 300.4805 189.1362)"><tspan x="0" y="0" class="st4 st5">Content </tspan><tspan x="-19.29" y="26.71" class="st4 st5">Experience  </tspan><tspan x="-19.71" y="53.41" class="st4 st5">Authoring / </tspan><tspan x="-28.03" y="80.12" class="st4 st5">Management</tspan></text>
	<text transform="matrix(1 0 0 1 93.7549 380.1543)" class="st6 st4 st7">Content Repository / Storage</text>
	<text transform="matrix(1 0 0 1 56.0884 86.5127)" class="st4 st8">CMS / Experience Management</text>
</g>
<g id="Layer_2">
	<path class="st9" d="M444.53,425.89H41.64c-6.6,0-12-5.4-12-12V119.76c0-6.6,5.4-12,12-12h402.89c6.6,0,12,5.4,12,12v294.13
		C456.53,420.49,451.13,425.89,444.53,425.89z"/>
	<text transform="matrix(1 0 0 1 89.0772 250)"><tspan x="0" y="0" class="st4 st8">AEM, Wordpress, SiteCore,  </tspan><tspan x="33.11" y="30.01" class="st4 st8">SquareSpace, Drupal,  </tspan><tspan x="74.61" y="60.02" class="st4 st8">Weebly, Wix, ...</tspan></text>
</g>
<g id="Layer_3" class="st10">
	<path class="st11" d="M435.67,413.2H49.8c-4.19,0-7.62-3.43-7.62-7.62v-62.45c0-4.19,3.43-7.62,7.62-7.62h385.86
		c4.19,0,7.62,3.43,7.62,7.62v62.45C443.29,409.77,439.86,413.2,435.67,413.2z"/>
	<path class="st12" d="M230.85,323.03H50.51c-4.37,0-7.94-3.57-7.94-7.94v-186.7c0-4.37,3.57-7.94,7.94-7.94h180.34
		c4.37,0,7.94,3.57,7.94,7.94v186.7C238.79,319.46,235.21,323.03,230.85,323.03z"/>
	<path class="st13" d="M436.11,323.03H257.46c-3.95,0-7.18-3.23-7.18-7.18V127.63c0-3.95,3.23-7.18,7.18-7.18h178.65
		c3.95,0,7.18,3.23,7.18,7.18v188.22C443.29,319.8,440.06,323.03,436.11,323.03z"/>
	<g class="st14">
		<circle class="st15" cx="100.84" cy="159.01" r="57.59"/>
		<text transform="matrix(1 0 0 1 68.3125 163.2656)" class="st16 st4 st17">Gatsby</text>
	</g>
	<text transform="matrix(1 0 0 1 78.5792 336.1181)" class="st18 st4 st19">“JAMStack”</text>
	<g class="st14">
		<circle class="st15" cx="218.57" cy="200.55" r="57.59"/>
		<text transform="matrix(1 0 0 1 186.1676 204.8059)" class="st16 st4 st17">Netlify</text>
	</g>
	<g class="st14">
		<circle class="st15" cx="92.79" cy="240.55" r="57.59"/>
		<text transform="matrix(1 0 0 1 64.6562 244.801)" class="st16 st4 st17">Jekyll</text>
	</g>
	<g class="st14">
		<circle class="st15" cx="160.98" cy="266.83" r="57.59"/>
		<text transform="matrix(1 0 0 1 126.4458 271.0792)"><tspan x="0" y="0" class="st16 st4 st17">GitHub </tspan><tspan x="6.43" y="21.6" class="st16 st4 st17">Pages</tspan></text>
	</g>
	<g class="st14">
		<circle class="st15" cx="308.6" cy="374.35" r="57.59"/>
		<text transform="matrix(1 0 0 1 259.8348 378.6035)" class="st16 st4 st17">contentful</text>
	</g>
	<g class="st14">
		<circle class="st15" cx="385.7" cy="336.12" r="57.59"/>
		<text transform="matrix(1 0 0 1 330.5405 340.3701)" class="st16 st4 st17">googledrive</text>
	</g>
	<g class="st14">
		<circle class="st15" cx="216.29" cy="385.44" r="57.59"/>
		<text transform="matrix(1 0 0 1 184.582 389.6938)" class="st16 st4 st17">github</text>
	</g>
	<g class="st14">
		<circle class="st15" cx="116.01" cy="380.24" r="57.59"/>
		<text transform="matrix(1 0 0 1 76.6349 384.4947)" class="st16 st4 st17">dropbox</text>
	</g>
</g>
</svg>
